# This file uses centimeters as units for non-parametric coordinates.

mtllib lighting.mtl
g default
v 0.416630 0.394733 0.152704
v 0.533197 0.394733 0.152704
v 2.424981 10.660688 0.110145
v 2.645268 10.660688 0.110145
v 2.424981 10.660688 -0.110145
v 2.645268 10.660688 -0.110145
v 0.416630 0.394733 -0.152704
v 0.533197 0.394733 -0.152704
v -1.115343 8.631679 0.500000
v -2.820244 8.631679 0.500000
v -2.820244 8.631679 -0.500000
v -1.115343 8.631679 -0.500000
v 3.899637 6.989443 0.254023
v 2.240877 6.989443 0.254023
v 2.240877 6.989443 -0.254023
v 3.899637 6.989443 -0.254023
v -0.833614 5.597464 0.271698
v -2.242987 5.597464 0.271698
v -2.242987 5.597464 -0.271698
v -0.833614 5.597464 -0.271698
v 2.821527 3.832239 0.500000
v 1.874819 3.832239 0.500000
v 1.874819 3.832239 -0.500000
v 2.821527 3.832239 -0.500000
v 0.132061 2.510056 0.500000
v -0.500000 2.510056 0.500000
v -0.500000 2.510056 -0.500000
v 0.132061 2.510056 -0.500000
v 2.041657 2.016759 0.257916
v 1.525824 2.016759 0.257916
v 1.525824 2.016759 -0.257916
v 2.041657 2.016759 -0.257916
vt 0.375000 0.000000
vt 0.625000 0.000000
vt 0.375000 0.250000
vt 0.625000 0.250000
vt 0.375000 0.500000
vt 0.625000 0.500000
vt 0.375000 0.750000
vt 0.625000 0.750000
vt 0.375000 1.000000
vt 0.625000 1.000000
vt 0.875000 0.000000
vt 0.875000 0.250000
vt 0.125000 0.000000
vt 0.125000 0.250000
vt 0.625000 0.216199
vt 0.375000 0.216199
vt 0.125000 0.216199
vt 0.375000 0.533801
vt 0.625000 0.533801
vt 0.875000 0.216199
vt 0.625000 0.177170
vt 0.375000 0.177170
vt 0.125000 0.177170
vt 0.375000 0.572830
vt 0.625000 0.572830
vt 0.875000 0.177170
vt 0.625000 0.133792
vt 0.375000 0.133792
vt 0.125000 0.133792
vt 0.375000 0.616208
vt 0.625000 0.616208
vt 0.875000 0.133792
vt 0.625000 0.101380
vt 0.375000 0.101380
vt 0.125000 0.101380
vt 0.375000 0.648620
vt 0.625000 0.648620
vt 0.875000 0.101380
vt 0.625000 0.063012
vt 0.375000 0.063012
vt 0.125000 0.063012
vt 0.375000 0.686988
vt 0.625000 0.686988
vt 0.875000 0.063012
vt 0.625000 0.038586
vt 0.375000 0.038586
vt 0.125000 0.038586
vt 0.375000 0.711414
vt 0.625000 0.711414
vt 0.875000 0.038586
vn 0.000000 -0.064729 0.997903
vn 0.000000 -0.064729 0.997903
vn 0.000000 -0.131119 0.991367
vn 0.000000 -0.237823 0.971309
vn 0.000000 1.000000 0.000000
vn 0.000000 1.000000 0.000000
vn 0.000000 1.000000 0.000000
vn 0.000000 1.000000 0.000000
vn 0.000000 -0.237823 -0.971309
vn 0.000000 -0.131119 -0.991367
vn 0.000000 -0.064729 -0.997903
vn 0.000000 -0.064729 -0.997903
vn 0.000000 -1.000000 0.000000
vn 0.000000 -1.000000 0.000000
vn 0.000000 -1.000000 0.000000
vn 0.000000 -1.000000 0.000000
vn 0.732277 -0.681007 0.000000
vn 0.732277 -0.681007 0.000000
vn 0.737959 0.674846 0.000000
vn 0.737959 0.674846 0.000000
vn -0.825453 0.564471 0.000000
vn -0.825453 0.564471 0.000000
vn -0.654011 -0.756485 0.000000
vn -0.654011 -0.756485 0.000000
vn 0.000000 0.006008 0.999982
vn 0.000000 -0.013664 0.999907
vn 0.000000 0.188689 0.982037
vn 0.000000 0.188689 0.982037
vn -0.965368 -0.260892 0.000000
vn -0.965368 -0.260892 0.000000
vn -0.360778 0.932652 0.000000
vn -0.360778 0.932652 0.000000
vn 0.000000 0.188689 -0.982037
vn 0.000000 0.188689 -0.982037
vn 0.000000 -0.013665 -0.999907
vn 0.000000 0.006008 -0.999982
vn 0.843524 0.537092 0.000000
vn 0.843524 0.537092 0.000000
vn 0.474837 -0.880074 0.000000
vn 0.474837 -0.880074 0.000000
vn 0.000000 -0.078468 0.996917
vn 0.000000 -0.083063 0.996544
vn -0.788676 -0.614809 0.000000
vn -0.788676 -0.614809 0.000000
vn 0.000000 -0.083063 -0.996544
vn 0.000000 -0.078468 -0.996917
vn 0.820464 0.571699 0.000000
vn 0.820464 0.571699 0.000000
vn 0.000000 0.078810 0.996890
vn 0.000000 0.068325 0.997663
vn -0.917037 -0.398803 0.000000
vn -0.917037 -0.398803 0.000000
vn 0.000000 0.068325 -0.997663
vn 0.000000 0.078810 -0.996890
vn 0.979633 0.200799 0.000000
vn 0.979633 0.200799 0.000000
vn 0.000000 0.086849 0.996221
vn 0.000000 0.085560 0.996333
vn -0.966615 -0.256233 0.000000
vn -0.966615 -0.256233 0.000000
vn 0.000000 0.085560 -0.996333
vn 0.000000 0.086849 -0.996222
vn 0.999934 0.011498 0.000000
vn 0.999934 0.011498 0.000000
vn 0.000000 -0.060697 0.998156
vn 0.000000 -0.109404 0.993997
vn -0.868480 0.495724 0.000000
vn -0.868480 0.495724 0.000000
vn 0.000000 -0.109404 -0.993997
vn 0.000000 -0.060697 -0.998156
vn 0.776057 -0.630663 0.000000
vn 0.776056 -0.630664 0.000000
s 1
g pCube1
usemtl lambert2SG
f 1/1/1 2/2/2 29/45/3 30/46/4
s off
f 3/3/5 4/4/6 6/6/7 5/5/8
s 2
f 31/48/9 32/49/10 8/8/11 7/7/12
s off
f 7/7/13 8/8/14 2/10/15 1/9/16
s 3
f 2/2/17 8/11/18 32/50/19 29/45/20
s 4
f 7/13/21 1/1/22 30/46/23 31/47/24
s 1
f 10/16/25 9/15/26 4/4/27 3/3/28
s 4
f 11/17/29 10/16/30 3/3/31 5/14/32
s 2
f 5/5/33 6/6/34 12/19/35 11/18/36
s 3
f 9/15/37 12/20/38 6/12/39 4/4/40
s 1
f 14/22/41 13/21/42 9/15/26 10/16/25
s 4
f 15/23/43 14/22/44 10/16/30 11/17/29
s 2
f 11/18/36 12/19/35 16/25/45 15/24/46
s 3
f 13/21/47 16/26/48 12/20/38 9/15/37
s 1
f 18/28/49 17/27/50 13/21/42 14/22/41
s 4
f 19/29/51 18/28/52 14/22/44 15/23/43
s 2
f 15/24/46 16/25/45 20/31/53 19/30/54
s 3
f 17/27/55 20/32/56 16/26/48 13/21/47
s 1
f 22/34/57 21/33/58 17/27/50 18/28/49
s 4
f 23/35/59 22/34/60 18/28/52 19/29/51
s 2
f 19/30/54 20/31/53 24/37/61 23/36/62
s 3
f 21/33/63 24/38/64 20/32/56 17/27/55
s 1
f 26/40/65 25/39/66 21/33/58 22/34/57
s 4
f 27/41/67 26/40/68 22/34/60 23/35/59
s 2
f 23/36/62 24/37/61 28/43/69 27/42/70
s 3
f 25/39/71 28/44/72 24/38/64 21/33/63
s 1
f 30/46/4 29/45/3 25/39/66 26/40/65
s 4
f 31/47/24 30/46/23 26/40/68 27/41/67
s 2
f 27/42/70 28/43/69 32/49/10 31/48/9
s 3
f 29/45/20 32/50/19 28/44/72 25/39/71
